<svg width="126" height="33" viewBox="0 0 126 33" fill="none" xmlns="http://www.w3.org/2000/svg">
<path d="M13.61 14.2C14.83 14.46 15.81 15.07 16.55 16.03C17.29 16.97 17.66 18.05 17.66 19.27C17.66 21.03 17.04 22.43 15.8 23.47C14.58 24.49 12.87 25 10.67 25H0.86V3.94H10.34C12.48 3.94 14.15 4.43 15.35 5.41C16.57 6.39 17.18 7.72 17.18 9.4C17.18 10.64 16.85 11.67 16.19 12.49C15.55 13.31 14.69 13.88 13.61 14.2ZM5.99 12.46H9.35C10.19 12.46 10.83 12.28 11.27 11.92C11.73 11.54 11.96 10.99 11.96 10.27C11.96 9.55 11.73 9 11.27 8.62C10.83 8.24 10.19 8.05 9.35 8.05H5.99V12.46ZM9.77 20.86C10.63 20.86 11.29 20.67 11.75 20.29C12.23 19.89 12.47 19.32 12.47 18.58C12.47 17.84 12.22 17.26 11.72 16.84C11.24 16.42 10.57 16.21 9.71 16.21H5.99V20.86H9.77ZM23.2154 6.52C22.3154 6.52 21.5754 6.26 20.9954 5.74C20.4354 5.2 20.1554 4.54 20.1554 3.76C20.1554 2.96 20.4354 2.3 20.9954 1.78C21.5754 1.24 22.3154 0.969998 23.2154 0.969998C24.0954 0.969998 24.8154 1.24 25.3754 1.78C25.9554 2.3 26.2454 2.96 26.2454 3.76C26.2454 4.54 25.9554 5.2 25.3754 5.74C24.8154 6.26 24.0954 6.52 23.2154 6.52ZM25.7654 8.26V25H20.6354V8.26H25.7654ZM38.813 20.65V25H36.203C34.343 25 32.893 24.55 31.853 23.65C30.813 22.73 30.293 21.24 30.293 19.18V12.52H28.253V8.26H30.293V4.18H35.423V8.26H38.783V12.52H35.423V19.24C35.423 19.74 35.543 20.1 35.783 20.32C36.023 20.54 36.423 20.65 36.983 20.65H38.813ZM44.0705 25.24C43.1705 25.24 42.4305 24.98 41.8505 24.46C41.2905 23.92 41.0105 23.26 41.0105 22.48C41.0105 21.68 41.2905 21.01 41.8505 20.47C42.4305 19.93 43.1705 19.66 44.0705 19.66C44.9505 19.66 45.6705 19.93 46.2305 20.47C46.8105 21.01 47.1005 21.68 47.1005 22.48C47.1005 23.26 46.8105 23.92 46.2305 24.46C45.6705 24.98 44.9505 25.24 44.0705 25.24ZM57.7573 25.21C56.2173 25.21 54.8373 24.96 53.6173 24.46C52.3973 23.96 51.4173 23.22 50.6773 22.24C49.9573 21.26 49.5773 20.08 49.5373 18.7H54.9973C55.0773 19.48 55.3473 20.08 55.8073 20.5C56.2673 20.9 56.8673 21.1 57.6073 21.1C58.3673 21.1 58.9673 20.93 59.4073 20.59C59.8473 20.23 60.0673 19.74 60.0673 19.12C60.0673 18.6 59.8873 18.17 59.5273 17.83C59.1873 17.49 58.7573 17.21 58.2373 16.99C57.7373 16.77 57.0173 16.52 56.0773 16.24C54.7173 15.82 53.6073 15.4 52.7473 14.98C51.8873 14.56 51.1473 13.94 50.5273 13.12C49.9073 12.3 49.5973 11.23 49.5973 9.91C49.5973 7.95 50.3073 6.42 51.7273 5.32C53.1473 4.2 54.9973 3.64 57.2773 3.64C59.5973 3.64 61.4673 4.2 62.8873 5.32C64.3073 6.42 65.0673 7.96 65.1673 9.94H59.6173C59.5773 9.26 59.3273 8.73 58.8673 8.35C58.4073 7.95 57.8173 7.75 57.0973 7.75C56.4773 7.75 55.9773 7.92 55.5973 8.26C55.2173 8.58 55.0273 9.05 55.0273 9.67C55.0273 10.35 55.3473 10.88 55.9873 11.26C56.6273 11.64 57.6273 12.05 58.9873 12.49C60.3473 12.95 61.4473 13.39 62.2873 13.81C63.1473 14.23 63.8873 14.84 64.5073 15.64C65.1273 16.44 65.4373 17.47 65.4373 18.73C65.4373 19.93 65.1273 21.02 64.5073 22C63.9073 22.98 63.0273 23.76 61.8673 24.34C60.7073 24.92 59.3373 25.21 57.7573 25.21ZM78.8844 8.08C80.8044 8.08 82.3444 8.72 83.5044 10C84.6644 11.26 85.2444 13 85.2444 15.22V25H80.1444V15.91C80.1444 14.79 79.8544 13.92 79.2744 13.3C78.6944 12.68 77.9144 12.37 76.9344 12.37C75.9544 12.37 75.1744 12.68 74.5944 13.3C74.0144 13.92 73.7244 14.79 73.7244 15.91V25H68.5944V2.8H73.7244V10.51C74.2444 9.77 74.9544 9.18 75.8544 8.74C76.7544 8.3 77.7644 8.08 78.8844 8.08ZM96.4292 25.24C94.7892 25.24 93.3092 24.89 91.9892 24.19C90.6892 23.49 89.6592 22.49 88.8992 21.19C88.1592 19.89 87.7892 18.37 87.7892 16.63C87.7892 14.91 88.1692 13.4 88.9292 12.1C89.6892 10.78 90.7292 9.77 92.0492 9.07C93.3692 8.37 94.8492 8.02 96.4892 8.02C98.1292 8.02 99.6092 8.37 100.929 9.07C102.249 9.77 103.289 10.78 104.049 12.1C104.809 13.4 105.189 14.91 105.189 16.63C105.189 18.35 104.799 19.87 104.019 21.19C103.259 22.49 102.209 23.49 100.869 24.19C99.5492 24.89 98.0692 25.24 96.4292 25.24ZM96.4292 20.8C97.4092 20.8 98.2392 20.44 98.9192 19.72C99.6192 19 99.9692 17.97 99.9692 16.63C99.9692 15.29 99.6292 14.26 98.9492 13.54C98.2892 12.82 97.4692 12.46 96.4892 12.46C95.4892 12.46 94.6592 12.82 93.9992 13.54C93.3392 14.24 93.0092 15.27 93.0092 16.63C93.0092 17.97 93.3292 19 93.9692 19.72C94.6292 20.44 95.4492 20.8 96.4292 20.8ZM113.041 10.63C113.541 9.85 114.231 9.22 115.111 8.74C115.991 8.26 117.021 8.02 118.201 8.02C119.581 8.02 120.831 8.37 121.951 9.07C123.071 9.77 123.951 10.77 124.591 12.07C125.251 13.37 125.581 14.88 125.581 16.6C125.581 18.32 125.251 19.84 124.591 21.16C123.951 22.46 123.071 23.47 121.951 24.19C120.831 24.89 119.581 25.24 118.201 25.24C117.041 25.24 116.011 25 115.111 24.52C114.231 24.04 113.541 23.42 113.041 22.66V32.98H107.911V8.26H113.041V10.63ZM120.361 16.6C120.361 15.32 120.001 14.32 119.281 13.6C118.581 12.86 117.711 12.49 116.671 12.49C115.651 12.49 114.781 12.86 114.061 13.6C113.361 14.34 113.011 15.35 113.011 16.63C113.011 17.91 113.361 18.92 114.061 19.66C114.781 20.4 115.651 20.77 116.671 20.77C117.691 20.77 118.561 20.4 119.281 19.66C120.001 18.9 120.361 17.88 120.361 16.6Z" fill="white"/>
</svg>
